<svg xmlns="http://www.w3.org/2000/svg" xmlns:xlink="http://www.w3.org/1999/xlink" viewBox="0 0 28.29 31.96"><defs><style>.cls-1{isolation:isolate;}.cls-2,.cls-3{mix-blend-mode:screen;}.cls-2{fill:url(#radial-gradient);}.cls-3{fill:url(#radial-gradient-2);}</style><radialGradient id="radial-gradient" cx="150.79" cy="118.28" r="86.59" gradientTransform="translate(-23.33 -19.34) scale(1.16 1.31)" gradientUnits="userSpaceOnUse"><stop offset="0" stop-color="#00d3ff"/><stop offset="0.03" stop-color="#00bde4"/><stop offset="0.1" stop-color="#0096b5"/><stop offset="0.17" stop-color="#00728a"/><stop offset="0.24" stop-color="#005365"/><stop offset="0.32" stop-color="#003945"/><stop offset="0.41" stop-color="#00242c"/><stop offset="0.51" stop-color="#001418"/><stop offset="0.62" stop-color="#00090a"/><stop offset="0.75" stop-color="#000202"/><stop offset="1"/></radialGradient><radialGradient id="radial-gradient-2" cx="150.79" cy="118.28" r="86.59" xlink:href="#radial-gradient"/></defs><title>logo</title><g class="cls-1"><g id="Layer_1" data-name="Layer 1"><path class="cls-2" d="M161,144.57,152.53,135a5.22,5.22,0,0,0-8,0L136,144.57a7,7,0,0,0,0,9.06l8.48,9.58a5.22,5.22,0,0,0,8,0l8.48-9.58a7,7,0,0,0,0-9.06Zm-2.25,6.52-8.48,9.58a2.33,2.33,0,0,1-3.51,0l-8.48-9.58a3.06,3.06,0,0,1,0-4l8.48-9.59a2.29,2.29,0,0,1,3.51,0l8.48,9.59a3.06,3.06,0,0,1,0,4Z" transform="translate(-134.39 -133.12)"/><path class="cls-3" d="M150.25,146.66a4.06,4.06,0,0,0-3.44,0,4.47,4.47,0,0,0-1.46,1.1l-3,3.42,2.25,2.54,3-3.42A1.18,1.18,0,0,1,148,150a1.19,1.19,0,0,1,1,0,1.21,1.21,0,0,1,.43.32l3,3.42,2.24-2.54-3-3.42A4.57,4.57,0,0,0,150.25,146.66Z" transform="translate(-134.39 -133.12)"/></g></g></svg>